<svg width="321" height="321" viewBox="0 0 321 321" fill="none" xmlns="http://www.w3.org/2000/svg">
<path fill-rule="evenodd" clip-rule="evenodd" d="M241.008 160.559L206.195 124.144C206.195 124.144 204.453 123.645 204.453 119.406V79.7475C204.453 79.7475 205.45 70.769 213.654 74.5079L286.022 146.093C286.022 146.093 296.713 160.06 289.501 170.787C282.29 181.511 214.899 247.607 214.899 247.607C214.899 247.607 204.949 252.099 204.453 242.619C203.957 233.141 204.453 202.713 204.453 202.713C204.453 202.713 204.703 199.719 207.189 196.727C209.677 193.732 241.008 160.559 241.008 160.559Z" fill="#1475BC"/>
<path fill-rule="evenodd" clip-rule="evenodd" d="M59.523 180.998H36.1108C31.6304 180.998 28 177.357 28 172.864V149.383C28 144.889 31.6304 141.248 36.1108 141.248H59.523C64.0018 141.248 67.6322 144.889 67.6322 149.383V172.864C67.6322 177.357 64.0018 180.999 59.523 180.998Z" fill="#03B0AD"/>
<path fill-rule="evenodd" clip-rule="evenodd" d="M109.601 127.124H86.1888C81.7085 127.124 78.0781 123.484 78.0781 118.99V95.5079C78.0781 91.0141 81.7085 87.3742 86.1888 87.3742H109.601C114.08 87.3742 117.712 91.0151 117.712 95.5089V118.99C117.712 123.484 114.08 127.124 109.601 127.124Z" fill="#03B0AD"/>
<path fill-rule="evenodd" clip-rule="evenodd" d="M163.178 72.2627H139.765C135.285 72.2627 131.654 68.6218 131.654 64.1297V40.6465C131.654 36.1533 135.285 32.5115 139.765 32.5115H163.178C167.656 32.5115 171.288 36.1543 171.288 40.6465V64.1297C171.288 68.6218 167.656 72.2637 163.178 72.2627Z" fill="#26AAE1"/>
<path fill-rule="evenodd" clip-rule="evenodd" d="M109.601 234.873H86.1888C81.7085 234.873 78.0781 231.234 78.0781 226.739V203.257C78.0781 198.764 81.7085 195.122 86.1888 195.122H109.601C114.08 195.122 117.712 198.764 117.712 203.257V226.738C117.712 231.233 114.08 234.874 109.601 234.873Z" fill="#03B0AD"/>
<path fill-rule="evenodd" clip-rule="evenodd" d="M163.178 289.996H139.765C135.285 289.996 131.654 286.354 131.654 281.862V258.38C131.654 253.885 135.285 250.247 139.765 250.247H163.178C167.656 250.247 171.288 253.886 171.288 258.381V281.862C171.288 286.354 167.656 289.996 163.178 289.996Z" fill="#26AAE1"/>
<path d="M119 187.895V175.663C119 173.188 119.637 170.913 120.911 168.838C122.185 166.763 123.878 165.179 125.989 164.087C130.504 161.83 135.09 160.137 139.75 159.009C144.41 157.88 149.142 157.316 153.947 157.316C155.404 157.316 156.86 157.37 158.316 157.48C159.772 157.589 161.228 157.753 162.684 157.971C162.393 162.194 163.157 166.18 164.978 169.93C166.798 173.679 169.455 176.755 172.95 179.158V187.895H119ZM188.895 201L182.342 194.447V174.134C179.139 173.188 176.518 171.386 174.479 168.728C172.44 166.071 171.421 162.995 171.421 159.5C171.421 155.277 172.914 151.673 175.899 148.688C178.884 145.703 182.488 144.211 186.711 144.211C190.933 144.211 194.537 145.703 197.522 148.688C200.507 151.673 202 155.277 202 159.5C202 162.776 201.072 165.689 199.215 168.237C197.359 170.785 195.011 172.605 192.171 173.697L197.632 179.158L191.079 185.711L197.632 192.263L188.895 201ZM153.947 152.947C149.142 152.947 145.029 151.236 141.607 147.814C138.185 144.393 136.474 140.279 136.474 135.474C136.474 130.668 138.185 126.555 141.607 123.133C145.029 119.711 149.142 118 153.947 118C158.753 118 162.866 119.711 166.288 123.133C169.71 126.555 171.421 130.668 171.421 135.474C171.421 140.279 169.71 144.393 166.288 147.814C162.866 151.236 158.753 152.947 153.947 152.947ZM189.823 160.428C190.66 159.591 191.079 158.554 191.079 157.316C191.079 156.078 190.66 155.041 189.823 154.203C188.986 153.366 187.948 152.947 186.711 152.947C185.473 152.947 184.435 153.366 183.598 154.203C182.761 155.041 182.342 156.078 182.342 157.316C182.342 158.554 182.761 159.591 183.598 160.428C184.435 161.266 185.473 161.684 186.711 161.684C187.948 161.684 188.986 161.266 189.823 160.428Z" fill="#26AAE1"/>
</svg>
